<svg width="458" height="655" viewBox="0 0 458 655" fill="none" xmlns="http://www.w3.org/2000/svg" style="opacity: 0.5;"><path fill-rule="evenodd" clip-rule="evenodd" d="M228.84 60.2526C176.117 60.2526 127.021 75.5788 85.6774 102.044L117.48 141.476C150.012 121.849 188.136 110.551 228.842 110.551C312.943 110.551 385.776 158.686 421.509 228.832L368.209 256.11C342.302 205.252 289.591 170.536 228.842 170.536C191.57 170.536 157.416 183.569 130.552 205.363L107.279 224.244L0.482634 91.8265L23.7277 72.9686C79.7557 27.5152 151.164 0.267578 228.84 0.267578C248.245 0.267578 267.278 1.96902 285.792 5.23815L275.409 64.3135C260.308 61.647 244.749 60.2526 228.84 60.2526ZM332.158 81.0689C355.389 90.8767 376.957 103.901 396.302 119.595L419.561 138.464L457.212 91.8378L433.953 72.9686C410.288 53.7704 383.876 37.8144 355.388 25.7874L332.158 81.0689ZM72.4759 327.266C72.4759 306.24 76.5906 286.252 84.0289 268.011L28.632 245.316C18.3065 270.636 12.6303 298.324 12.6303 327.266C12.6303 376.027 28.7324 421.105 55.8854 457.331L103.732 421.3C84.0986 395.106 72.4759 362.59 72.4759 327.266ZM363.178 407.535C348.904 431.474 328.432 451.29 304.008 464.74L332.826 517.313C366.584 498.722 394.832 471.374 414.548 438.308L363.178 407.535ZM228.842 483.997C195.113 483.997 163.96 473.327 138.442 455.168L103.797 504.079C131.405 523.726 163.835 537.045 198.919 541.92L198.917 654.265H228.84C263.164 654.265 296.305 648.941 327.453 639.052C336.961 636.033 346.28 632.59 355.388 628.745C383.876 616.718 410.288 600.762 433.953 581.564L457.212 562.694L419.561 516.068L396.302 534.937C376.957 550.631 355.389 563.655 332.158 573.463C324.731 576.599 317.133 579.406 309.382 581.867C293.143 587.023 276.217 590.663 258.764 592.616L258.766 483.997H228.842ZM61.3785 534.937L38.1195 516.068L0.46875 562.694L23.7278 581.564C55.6581 607.468 92.592 627.469 132.872 639.879L150.455 582.541C117.628 572.428 87.4809 556.113 61.3785 534.937Z" fill="#DEDEDE"></path><path fill-rule="evenodd" clip-rule="evenodd" d="M228.844 220.834C170.2 220.834 122.659 268.485 122.659 327.266C122.659 386.047 170.2 433.699 228.844 433.699C277.098 433.699 317.835 401.437 330.755 357.259L382.354 357.259L435.717 389.369C442.329 369.444 445.054 348.221 445.054 327.266C445.054 317.104 444.354 307.091 442.997 297.274L330.755 297.274C317.835 253.096 277.098 220.834 228.844 220.834ZM228.844 280.819C203.252 280.819 182.505 301.614 182.505 327.266C182.505 352.918 203.252 373.713 228.844 373.713C254.437 373.713 275.184 352.918 275.184 327.266C275.184 301.614 254.437 280.819 228.844 280.819Z" fill="#DEDEDE"></path></svg>