<svg width="179" height="49" viewBox="0 0 179 49" fill="none" xmlns="http://www.w3.org/2000/svg"><path fill-rule="evenodd" clip-rule="evenodd" d="M17.0837 4.47685C13.1396 4.47685 9.46694 5.62068 6.37417 7.59584L8.75319 10.5388C11.1868 9.07399 14.0388 8.23073 17.0838 8.23073C23.3752 8.23073 28.8235 11.8232 31.4966 17.0584L27.5094 19.0942C25.5714 15.2986 21.6282 12.7076 17.0838 12.7076C14.2956 12.7076 11.7407 13.6803 9.73105 15.3069L7.99008 16.716L0.00103862 6.8333L1.73993 5.42588C5.93119 2.03357 11.273 0 17.0837 0C18.5353 0 19.9591 0.126983 21.344 0.370968L20.5673 4.77993C19.4377 4.58092 18.2738 4.47685 17.0837 4.47685ZM24.8125 6.03043C26.5504 6.76241 28.1638 7.73445 29.6109 8.90574L31.3509 10.314L34.1674 6.83414L32.4275 5.42588C30.6572 3.99306 28.6814 2.80222 26.5503 1.90462L24.8125 6.03043ZM5.38661 24.4048C5.38661 22.8356 5.69441 21.3438 6.25085 19.9824L2.1068 18.2886C1.33438 20.1784 0.909761 22.2448 0.909761 24.4048C0.909761 28.044 2.11431 31.4082 4.14553 34.1119L7.72479 31.4228C6.25607 29.4679 5.38661 27.0411 5.38661 24.4048ZM27.1331 30.3955C26.0653 32.1821 24.5338 33.661 22.7068 34.6649L24.8625 38.5885C27.3878 37.201 29.501 35.16 30.9759 32.6922L27.1331 30.3955ZM17.0838 36.102C14.5607 36.102 12.2302 35.3057 10.3213 33.9505L7.72964 37.6009C9.79493 39.0672 12.2209 40.0612 14.8454 40.425L14.8452 48.8096H17.0837C19.6513 48.8096 22.1305 48.4123 24.4606 47.6743C25.1719 47.449 25.869 47.192 26.5503 46.905C28.6814 46.0074 30.6572 44.8166 32.4275 43.3838L34.1674 41.9755L31.3509 38.4956L29.6109 39.9039C28.1638 41.0752 26.5504 42.0472 24.8125 42.7792C24.2569 43.0132 23.6885 43.2227 23.1087 43.4064C21.8939 43.7912 20.6278 44.0629 19.3222 44.2087L19.3223 36.102H17.0838ZM4.55645 39.9039L2.81652 38.4956L0 41.9755L1.73993 43.3838C4.12853 45.317 6.89142 46.8098 9.90463 47.736L11.22 43.4567C8.76429 42.7019 6.50908 41.4843 4.55645 39.9039Z" fill="url(#paint0_linear_8782_8337)"></path><path fill-rule="evenodd" clip-rule="evenodd" d="M17.084 16.4615C12.697 16.4615 9.14064 20.0178 9.14064 24.4048C9.14064 28.7918 12.697 32.3482 17.084 32.3482C20.6937 32.3482 23.7411 29.9404 24.7076 26.6432L28.5676 26.6432L32.5595 29.0397C33.0541 27.5527 33.2579 25.9687 33.2579 24.4048C33.2579 23.6464 33.2056 22.8991 33.104 22.1664L24.7076 22.1664C23.7411 18.8693 20.6937 16.4615 17.084 16.4615ZM17.084 20.9383C15.1695 20.9383 13.6175 22.4903 13.6175 24.4048C13.6175 26.3193 15.1695 27.8713 17.084 27.8713C18.9985 27.8713 20.5505 26.3193 20.5505 24.4048C20.5505 22.4903 18.9985 20.9383 17.084 20.9383Z" fill="url(#paint1_linear_8782_8337)"></path><path d="M68.7806 39.5017H63.1603L54.2288 29.4375V39.5017H49.5234V9.00391H54.2288V27.3462L62.6811 17.7176H68.4321L58.8471 28.3918L68.7806 39.5017Z" fill="#0F2830"></path><path d="M71.7263 30.6138C72.0748 32.2694 72.8736 33.5474 74.1225 34.4478C75.3715 35.3192 76.8964 35.7549 78.6972 35.7549C81.1951 35.7549 83.0686 34.8545 84.3175 33.0536L88.1951 35.3192C86.0457 38.4851 82.8652 40.0681 78.6536 40.0681C75.1101 40.0681 72.2491 38.9934 70.0707 36.8441C67.8923 34.6657 66.803 31.9208 66.803 28.6097C66.803 25.3566 67.8777 22.6408 70.0271 20.4624C72.1765 18.2549 74.9358 17.1512 78.3051 17.1512C81.5001 17.1512 84.1142 18.2694 86.1474 20.5059C88.2096 22.7425 89.2407 25.4582 89.2407 28.6532C89.2407 29.147 89.1827 29.8005 89.0665 30.6138H71.7263ZM71.6827 26.7798H84.4918C84.1723 25.008 83.4316 23.6719 82.2698 22.7715C81.137 21.8711 79.8009 21.4209 78.2615 21.4209C76.5188 21.4209 75.0665 21.9001 73.9047 22.8586C72.7429 23.8171 72.0022 25.1242 71.6827 26.7798Z" fill="#0F2830"></path><path d="M105.337 17.7176H110.347L101.982 40.1988C99.8908 45.8337 96.3472 48.5059 91.3514 48.2154V43.815C92.8327 43.9021 94.0236 43.5826 94.924 42.8565C95.8244 42.1594 96.5651 41.0557 97.146 39.5453L97.3638 39.1096L88.1273 17.7176H93.2684L99.7601 33.5329L105.337 17.7176Z" fill="#0F2830"></path><path d="M116.736 21.3773C117.927 18.6761 120.379 17.391 123.446 17.7176V22.8151C121.645 22.6989 120.076 22.7425 118.74 23.73C117.404 24.6885 116.736 26.286 116.736 28.5225V39.5017H112.031V17.7176H116.736V21.3773Z" fill="#0F2830"></path><path d="M126.293 39.5017V17.7176H130.998V39.5017H126.293Z" fill="#0F2830"></path><path d="M145.476 17.1512C147.973 17.1512 149.992 17.9499 151.532 19.5474C153.071 21.1449 153.841 23.3379 153.841 26.1263V39.5017H149.135V26.6055C149.135 24.979 148.7 23.73 147.828 22.8586C146.957 21.9873 145.766 21.5516 144.256 21.5516C142.6 21.5516 141.264 22.0744 140.247 23.12C139.231 24.1366 138.722 25.7051 138.722 27.8254V39.5017H134.017V17.7176H138.722V20.5059C140.146 18.2694 142.397 17.1512 145.476 17.1512Z" fill="#0F2830"></path><path d="M174.384 17.7176H179.002V38.4997C179.002 41.8109 177.913 44.3523 175.734 46.1241C173.556 47.8959 170.598 48.7818 167.49 48.7818C162.465 48.7818 159.338 47.0245 157.479 43.51L161.531 41.1573C162.664 43.3938 164.784 44.5121 167.892 44.5121C169.925 44.5121 171.508 43.9748 172.641 42.9001C173.803 41.8544 174.384 40.3876 174.384 38.4997V35.842C172.612 38.369 170.085 39.6324 166.803 39.6324C163.724 39.6324 161.124 38.5432 159.004 36.3648C156.884 34.1574 155.823 31.4997 155.823 28.3918C155.823 25.2839 156.884 22.6408 159.004 20.4624C161.124 18.2549 163.724 17.1512 166.803 17.1512C170.085 17.1512 172.612 18.4147 174.384 20.9416V17.7176ZM162.489 33.2715C163.826 34.5785 165.481 35.232 167.456 35.232C169.431 35.232 171.072 34.5785 172.379 33.2715C173.716 31.9644 174.384 30.3379 174.384 28.3918C174.384 26.4458 173.716 24.8192 172.379 23.5122C171.072 22.2051 169.431 21.5516 167.456 21.5516C165.481 21.5516 163.826 22.2051 162.489 23.5122C161.182 24.8192 160.529 26.4458 160.529 28.3918C160.529 30.3379 161.182 31.9644 162.489 33.2715Z" fill="#0F2830"></path><path d="M126.289 13.5906V8.87109H131.009V13.5906H126.289Z" fill="#29DBAA"></path><defs><linearGradient id="paint0_linear_8782_8337" x1="22.0422" y1="-5.82589" x2="12.5146" y2="53.9866" gradientUnits="userSpaceOnUse"><stop stop-color="#2EE297"></stop><stop offset="1" stop-color="#1DC9D4"></stop></linearGradient><linearGradient id="paint1_linear_8782_8337" x1="22.0422" y1="-5.82589" x2="12.5146" y2="53.9866" gradientUnits="userSpaceOnUse"><stop stop-color="#2EE297"></stop><stop offset="1" stop-color="#1DC9D4"></stop></linearGradient></defs></svg>
